<svg  xmlns="http://www.w3.org/2000/svg" viewBox="0 0 556.05334 2210.4934" height="2210.4934" width="556.05334"><g xmlns="http://www.w3.org/2000/svg" transform="matrix(-1 0 0 -1 556.05334 2210.4934)"><g xmlns="http://www.w3.org/2000/svg" transform="matrix(0 1 -1 0 556.05334 -0)"><defs id="defs6" /><namedview id="namedview4" pagecolor="#ffffff" bordercolor="#000000" borderopacity="0.25" p3:showpageshadow="2" p3:pageopacity="0.0" p3:pagecheckerboard="0" p3:deskcolor="#d1d1d1" xmlns:p3="http://www.inkscape.org/namespaces/inkscape" xmlns="http://sodipodi.sourceforge.net/DTD/sodipodi-0.dtd" /><g id="g8" p3:groupmode="layer" p3:label="ink_ext_XXXXXX" transform="matrix(1.3333333,0,0,-1.3333333,0,556.05333)" xmlns:p3="http://www.inkscape.org/namespaces/inkscape"><g id="g10" transform="scale(0.1)"><path d="m 8037.07,3417.54 c 87.8,0 151.45,70.96 151.45,166.81 0,95.85 -63.65,167.55 -151.45,167.55 -87.8,0 -150.73,-71.7 -150.73,-167.55 0,-95.85 62.93,-166.81 150.73,-166.81 z m 49.75,-90.74 v -21.21 c 0,-34.39 14.63,-46.82 49.76,-46.82 h 65.12 v -79.76 h -70.98 c -97.31,0 -139.75,35.12 -139.75,120.72 v 26.34 c -126.57,20.49 -215.1,123.65 -215.1,258.28 0,150.72 111.21,261.94 261.93,261.94 149.99,0 261.2,-111.22 261.2,-261.94 0,-133.9 -87.79,-236.33 -212.18,-257.55" style="fill:#040606;fill-opacity:1;fill-rule:nonzero;stroke:none" id="path12" /><path d="m 13645.1,3249.26 h -110.5 v 365.1 c -9.5,-13.91 -44.6,-20.49 -66.6,-20.49 h -36.6 v 94.39 h 34.4 c 43.2,0 68.1,16.82 75.4,73.16 h 103.9 v -512.16" style="fill:#040606;fill-opacity:1;fill-rule:nonzero;stroke:none" id="path14" /><path d="m 7870.25,877.07 h 348.26 V 782.68 H 7980 V 674.398 h 190.23 V 579.281 H 7980 V 460.02 h 246.56 v -95.11 h -356.31 v 512.16" style="fill:#040606;fill-opacity:1;fill-rule:nonzero;stroke:none" id="path16" /><path d="m 13555.4,803.91 c 109.1,0 183.7,-63.66 183.7,-160.969 0,-69.511 -40.3,-123.652 -122.2,-164.621 l -81.2,-40.968 c -24.9,-13.18 -54.9,-32.204 -54.9,-56.34 h 256.8 v -95.121 h -365.8 l -0.7,81.211 c 0,79.757 68,132.437 115.6,155.847 l 83.4,41.699 c 37.3,17.563 58.5,43.911 58.5,78.293 0,43.168 -27.1,71.7 -73.2,71.7 -50.4,0 -76.8,-40.231 -75.3,-98.77 h -110.5 c -1.5,117.059 71.7,188.039 185.8,188.039" style="fill:#040606;fill-opacity:1;fill-rule:nonzero;stroke:none" id="path18" /><path d="M 920.27,1132.79 H 788.605 v 185.89 H 920.27 c 66.8,0 95.85,-43.57 95.85,-91.98 0,-49.38 -29.05,-93.91 -95.85,-93.91 z m 151.04,-47.44 c 52.28,27.11 85.19,73.58 85.19,141.35 0,123.92 -84.23,212.99 -228.484,212.99 H 642.414 V 761.988 H 788.605 V 1007.9 H 920.27 c 45.503,0 78.421,-31.959 83.26,-78.42 l 18.4,-167.492 h 145.22 l -18.39,186.844 c -5.81,59.068 -33.89,106.508 -77.45,136.518" style="fill:#040606;fill-opacity:1;fill-rule:nonzero;stroke:none" id="path20" /><path d="m 1435.3,1045.66 h 251.72 v 125.85 H 1435.3 v 143.29 h 315.62 v 124.89 H 1290.08 V 761.988 h 471.49 V 887.852 H 1435.3 v 157.808" style="fill:#040606;fill-opacity:1;fill-rule:nonzero;stroke:none" id="path22" /><path d="m 2144.94,1322.54 c 85.2,0 152,-47.43 161.69,-118.11 h 151.99 c -18.39,146.19 -143.28,243.01 -313.68,243.01 -181.04,0 -339.82,-118.12 -339.82,-346.6 0,-228.481 155.88,-346.602 339.82,-346.602 173.3,0 298.2,97.793 310.78,243.012 H 2310.5 c -11.62,-69.711 -78.42,-117.148 -165.56,-117.148 -109.4,0 -193.62,75.507 -193.62,220.738 0,145.22 84.22,221.7 193.62,221.7" style="fill:#040606;fill-opacity:1;fill-rule:nonzero;stroke:none" id="path24" /><path d="m 2861.35,880.102 c -116.18,0 -199.44,93.91 -199.44,220.738 0,126.83 83.26,221.7 199.44,221.7 116.18,0 200.41,-94.87 200.41,-221.7 0,-126.828 -84.23,-220.738 -200.41,-220.738 z m 0.97,567.338 c -199.44,0 -346.6,-147.16 -346.6,-346.6 0,-199.442 147.16,-346.602 346.6,-346.602 198.47,0 345.63,147.16 345.63,346.602 0,199.44 -147.16,346.6 -345.63,346.6" style="fill:#040606;fill-opacity:1;fill-rule:nonzero;stroke:none" id="path26" /><path d="M 3580.67,1132.79 H 3449 v 185.89 h 131.67 c 66.8,0 95.84,-43.57 95.84,-91.98 0,-49.38 -29.04,-93.91 -95.84,-93.91 z m 151.03,-47.44 c 52.28,27.11 85.19,73.58 85.19,141.35 0,123.92 -84.23,212.99 -228.48,212.99 H 3302.8 V 761.988 H 3449 V 1007.9 h 131.67 c 45.5,0 78.41,-31.959 83.26,-78.42 l 18.39,-167.492 h 145.22 l -18.39,186.844 c -5.81,59.068 -33.89,106.508 -77.45,136.518" style="fill:#040606;fill-opacity:1;fill-rule:nonzero;stroke:none" id="path28" /><path d="m 4163.46,887.852 h -67.77 V 1314.8 h 67.77 c 111.34,0 217.84,-54.22 217.84,-213.96 0,-159.75 -106.5,-212.988 -217.84,-212.988 z m 14.52,551.838 H 3950.47 V 761.988 h 227.51 c 186.86,0 350.48,108.434 350.48,338.852 0,231.38 -163.62,338.85 -350.48,338.85" style="fill:#040606;fill-opacity:1;fill-rule:nonzero;stroke:none" id="path30" /><path d="m 4624.28,761.988 h 146.2 v 677.702 h -146.2 V 761.988" style="fill:#040606;fill-opacity:1;fill-rule:nonzero;stroke:none" id="path32" /><path d="M 4896.32,1439.69 V 761.988 h 145.22 V 1210.24 L 5313.59,761.988 H 5468.5 V 1439.69 H 5323.27 V 991.441 l -272.05,448.249 h -154.9" style="fill:#040606;fill-opacity:1;fill-rule:nonzero;stroke:none" id="path34" /><path d="m 5897.36,754.238 c 87.14,0 158.78,44.532 181.05,111.34 v -103.59 h 128.76 v 261.392 c 0,59.07 -46.47,109.41 -109.4,109.41 h -183.95 v -109.41 h 130.7 c 16.46,0 27.11,-10.64 27.11,-27.11 0,-62.918 -83.26,-123.911 -167.49,-123.911 -112.31,0 -201.38,88.09 -201.38,228.481 0,140.39 89.07,221.7 204.28,221.7 87.14,0 147.17,-47.43 157.81,-120.04 h 144.26 c -8.72,145.22 -130.7,244.94 -301.1,244.94 -179.11,0 -343.69,-115.22 -343.69,-346.6 0,-231.391 159.74,-346.602 333.04,-346.602" style="fill:#040606;fill-opacity:1;fill-rule:nonzero;stroke:none" id="path36" /><path d="m 6531.48,880.102 c -71.65,0 -117.15,43.57 -122.96,112.308 H 6269.1 c 5.81,-144.262 108.44,-238.172 262.38,-238.172 151.99,0 254.62,79.391 254.62,206.211 0,268.191 -356.28,153.951 -356.28,295.301 0,39.68 35.82,66.79 92.94,66.79 64.87,0 105.53,-34.85 110.37,-88.09 h 138.44 c -3.87,128.76 -102.62,212.99 -248.81,212.99 -137.48,0 -234.29,-79.39 -234.29,-191.69 0,-266.25 351.43,-164.59 351.43,-297.23 0,-51.309 -43.56,-78.418 -108.42,-78.418" style="fill:#040606;fill-opacity:1;fill-rule:nonzero;stroke:none" id="path38" /><path d="m 6320.14,3104.22 c 54.66,0 98.96,44.31 98.96,98.93 0,54.68 -44.3,98.98 -98.96,98.98 -54.67,0 -98.97,-44.3 -98.97,-98.98 0,-54.62 44.3,-98.93 98.97,-98.93" style="fill:#040606;fill-opacity:1;fill-rule:nonzero;stroke:none" id="path40" /><path d="m 6144.86,3224.61 h -464.93 v -42.9 h 464.93 v 42.9" style="fill:#040606;fill-opacity:1;fill-rule:nonzero;stroke:none" id="path42" /><path d="m 6972.23,3224.61 h -476.81 v -42.9 h 476.81 v 42.9" style="fill:#040606;fill-opacity:1;fill-rule:nonzero;stroke:none" id="path44" /><path d="m 6341.58,3843.38 h -42.92 v -464.94 h 42.92 v 464.94" style="fill:#040606;fill-opacity:1;fill-rule:nonzero;stroke:none" id="path46" /><path d="m 6298.66,2562.94 h 42.92 v 464.94 h -42.92 v -464.94" style="fill:#040606;fill-opacity:1;fill-rule:nonzero;stroke:none" id="path48" /><path d="m 6852.66,3521.86 h 23.77 v 237.58 h -237.61 v -23.74 h 213.84 v -213.84" style="fill:#040606;fill-opacity:1;fill-rule:nonzero;stroke:none" id="path50" /><path d="m 6862.66,3531.86 h 3.77 v 217.58 h -217.61 v -3.74 h 213.84 z m 23.77,-20 h -43.77 v 213.84 h -213.84 v 43.74 h 257.61 v -257.58" style="fill:#040606;fill-opacity:1;fill-rule:nonzero;stroke:none" id="path52" /><path d="m 5787.61,3735.7 h 213.84 v 23.74 h -237.59 v -237.58 h 23.75 v 213.84" style="fill:#040606;fill-opacity:1;fill-rule:nonzero;stroke:none" id="path54" /><path d="m 5773.86,3531.86 h 3.75 v 213.84 h 213.84 v 3.74 h -217.59 z m 23.75,-20 h -43.75 v 257.58 h 257.59 v -43.74 h -213.84 v -213.84" style="fill:#040606;fill-opacity:1;fill-rule:nonzero;stroke:none" id="path56" /><path d="m 6852.66,2670.63 h -213.84 v -23.75 h 237.61 v 237.59 h -23.77 v -213.84" style="fill:#040606;fill-opacity:1;fill-rule:nonzero;stroke:none" id="path58" /><path d="m 6648.82,2656.88 h 217.61 v 217.59 h -3.77 v -213.84 h -213.84 z m 237.61,-20 h -257.61 v 43.75 h 213.84 v 213.84 h 43.77 v -257.59" style="fill:#040606;fill-opacity:1;fill-rule:nonzero;stroke:none" id="path60" /><path d="m 5787.61,2884.47 h -23.75 v -237.59 h 237.59 v 23.75 h -213.84 v 213.84" style="fill:#040606;fill-opacity:1;fill-rule:nonzero;stroke:none" id="path62" /><path d="m 5773.86,2656.88 h 217.59 v 3.75 h -213.84 v 213.84 h -3.75 z m 237.59,-20 h -257.59 v 257.59 h 43.75 v -213.84 h 213.84 v -43.75" style="fill:#040606;fill-opacity:1;fill-rule:nonzero;stroke:none" id="path64" /><path d="M 16487,91.6211 H 14254.3 V 4078.8 H 16487 Z m -2306,0 H 7497.83 V 4078.8 H 14181 Z M 7424.54,2121.86 H 5226.62 V 4078.8 h 2197.92 z m 0,-2030.2389 H 91.6172 V 2048.57 H 7424.54 Z M 91.6172,4078.8 H 5152.26 V 2121.86 H 91.6172 Z M 0,4170.42 V 0 H 16578.7 V 4170.42 H 0" style="fill:#040606;fill-opacity:1;fill-rule:nonzero;stroke:none" id="path66" /><path d="m 16092,391.059 h -147.9 v -31.75 h 174.6 l 5,0.363 V 539.328 H 16092 V 391.059" style="fill:#040606;fill-opacity:1;fill-rule:nonzero;stroke:none" id="path68" /><path d="m 16092,3631.44 h 31.7 v 174.67 l -0.3,5 h -179.7 v -31.75 h 148.3 v -147.92" style="fill:#040606;fill-opacity:1;fill-rule:nonzero;stroke:none" id="path70" /><path d="m 14572.8,3779.36 h 148 v 31.75 h -174.7 l -5,-0.36 v -179.66 h 31.7 v 148.27" style="fill:#040606;fill-opacity:1;fill-rule:nonzero;stroke:none" id="path72" /><path d="m 14721.1,359.309 v 31.75 h -148.3 V 538.98 h -31.7 V 364.309 l 0.4,-5 h 179.6" style="fill:#040606;fill-opacity:1;fill-rule:nonzero;stroke:none" id="path74" /><path d="m 8142.65,2108.76 c 4.9,208.27 73.98,410.9 205.54,602.66 66.27,96.58 148.39,189.83 244.08,277.16 95.09,86.77 204.37,168.41 324.78,242.65 244.9,150.98 530.22,269.56 848.03,352.43 324.12,84.52 668.22,128 1022.82,129.36 v -878.85 h 34.3 v 878.85 c 354.6,-1.36 698.7,-44.84 1022.8,-129.36 317.8,-82.87 603.1,-201.45 848,-352.43 120.4,-74.24 229.7,-155.88 324.8,-242.65 95.7,-87.33 177.8,-180.58 244.1,-277.16 131.5,-191.76 200.6,-394.39 205.5,-602.66 h -545 v -47.79 h 545 c -4.9,-208.26 -74,-410.9 -205.5,-602.64 -66.3,-96.6 -148.4,-189.84 -244.1,-277.17 -95.1,-86.77 -204.4,-168.41 -324.8,-242.648 -244.9,-150.992 -530.2,-269.563 -848,-352.43 -324.1,-84.523 -668.2,-128.012 -1022.8,-129.363 v 876.231 h -34.3 V 456.719 c -354.6,1.351 -698.7,44.84 -1022.82,129.363 -317.81,82.867 -603.13,201.438 -848.03,352.43 -120.41,74.238 -229.69,155.878 -324.78,242.648 -95.69,87.33 -177.81,180.57 -244.08,277.17 -131.55,191.74 -200.64,394.38 -205.54,602.64 h 544.03 v 47.79 z m 180.82,-683.49 c 136.54,-199.01 331.59,-377.48 579.76,-530.469 247.31,-152.469 535.16,-272.153 855.57,-355.692 331.4,-86.418 683.4,-130.238 1046.2,-130.238 362.9,0 714.9,43.82 1046.3,130.238 320.4,83.539 608.2,203.223 855.6,355.692 248.1,152.989 443.2,331.459 579.7,530.469 69.7,101.61 123.3,208.12 159.3,316.6 37.2,112 56,227.41 56,343 0,115.58 -18.8,230.99 -56,343 -36,108.47 -89.6,214.99 -159.3,316.6 -136.5,199 -331.6,377.47 -579.7,530.47 -247.4,152.47 -535.2,272.14 -855.6,355.69 -331.4,86.42 -683.4,130.23 -1046.3,130.23 -362.8,0 -714.8,-43.81 -1046.2,-130.23 -320.41,-83.55 -608.26,-203.22 -855.57,-355.69 -248.17,-153 -443.22,-331.47 -579.76,-530.47 -69.7,-101.61 -123.31,-208.13 -159.31,-316.6 -37.18,-112.01 -56.03,-227.42 -56.03,-343 0,-115.59 18.85,-231 56.03,-343 36,-108.48 89.61,-214.99 159.31,-316.6" style="fill:#040606;fill-opacity:1;fill-rule:nonzero;stroke:none" id="path76" /><path d="m 1456.02,2877.59 c -152.81,0 -262.31,123.51 -262.31,290.32 0,166.8 109.5,291.59 262.31,291.59 152.8,0 263.57,-124.79 263.57,-291.59 0,-166.81 -110.77,-290.32 -263.57,-290.32 z m 1.27,746.17 c -262.31,0 -455.85,-193.55 -455.85,-455.85 0,-234.29 154.07,-413.83 374.36,-449.48 v -45.84 c 0,-148.98 73.85,-210.1 243.2,-210.1 h 123.51 v 138.79 h -113.32 c -61.12,0 -86.59,21.64 -86.59,81.49 v 36.93 c 216.47,36.93 369.27,215.19 369.27,448.21 0,262.3 -193.55,455.85 -454.58,455.85" style="fill:#040606;fill-opacity:1;fill-rule:nonzero;stroke:none" id="path78" /><path d="m 2062.1,3486.24 h -59.84 v -164.26 h 63.66 c 38.2,0 99.32,11.46 115.88,35.66 v -635.39 h 192.27 v 891.32 h -180.81 c -12.74,-98.04 -56.03,-127.33 -131.16,-127.33" style="fill:#040606;fill-opacity:1;fill-rule:nonzero;stroke:none" id="path80" /><path d="m 2729.32,3095.33 h 331.06 v 165.53 h -331.06 v 188.46 h 415.1 v 164.25 h -606.1 v -891.32 h 620.11 v 165.53 h -429.11 v 207.55" style="fill:#040606;fill-opacity:1;fill-rule:nonzero;stroke:none" id="path82" /><path d="m 3546.78,2985.83 141.34,71.3 c 142.61,71.3 212.64,165.53 212.64,286.5 0,169.35 -129.87,280.13 -319.6,280.13 -198.64,0 -325.97,-123.52 -323.42,-327.24 h 192.27 c -2.55,101.86 43.29,171.89 131.15,171.89 80.22,0 127.33,-49.66 127.33,-124.78 0,-59.84 -36.92,-105.69 -101.86,-136.25 l -145.16,-72.58 c -82.77,-40.74 -201.19,-132.42 -201.19,-271.22 l 1.27,-141.33 h 636.67 v 165.53 h -446.94 c 0,42.01 52.21,75.13 95.5,98.05" style="fill:#040606;fill-opacity:1;fill-rule:nonzero;stroke:none" id="path84" /></g></g></g></g></svg>